# xmcd CD database file generated by OrangeCD 6.1
#
# Track frame offsets:
#	200
#	27385
#	45410
#	73277
#	91155
#	116022
#	134017
#	151750
#	174340
#	194060
#	227980
#
# Disc length: 3481 seconds
#
# Revision: 3
# Processed by: cddbd v1.5.2PL0 Copyright (c) Steve Scherf et al.
# Submitted via: OrangeCD 6.1
#
DISCID=980d970b
DTITLE=Burnt Toast and Jam - Burnt Toast and Jam
DYEAR=1995
DGENRE=Country
TTITLE0=Circle and The Payoff
TTITLE1=Whirlwind
TTITLE2=The Rock
TTITLE3=Dreams (Not Reality)
TTITLE4=I'm Gonna Sail
TTITLE5=Hey Hey Hey
TTITLE6=Speeder Blues
TTITLE7=Close To You
TTITLE8=Steady She Goes My Friend
TTITLE9=Colorado
TTITLE10=No Rules
EXTD=
EXTT0=
EXTT1=
EXTT2=
EXTT3=
EXTT4=
EXTT5=
EXTT6=
EXTT7=
EXTT8=
EXTT9=
EXTT10=
PLAYORDER=
